<svg xmlns="http://www.w3.org/2000/svg" xmlns:xlink="http://www.w3.org/1999/xlink" width="500" zoomAndPan="magnify" viewBox="0 0 375 374.999991" height="500" preserveAspectRatio="xMidYMid meet" version="1.0"><defs><g/><clipPath id="b1c6d62a83"><path d="M 56.488281 151.464844 L 318.238281 151.464844 L 318.238281 223.464844 L 56.488281 223.464844 Z M 56.488281 151.464844 " clip-rule="nonzero"/></clipPath><clipPath id="9e0b1164f6"><path d="M 63.558594 158.238281 L 187.332031 158.238281 L 187.332031 216.761719 L 63.558594 216.761719 Z M 63.558594 158.238281 " clip-rule="nonzero"/></clipPath></defs><g clip-path="url(#b1c6d62a83)"><path stroke-linecap="butt" transform="matrix(0.750202, 0, 0, 0.749268, 56.489269, 151.465449)" fill="none" stroke-linejoin="miter" d="M -0.00131637 -0.000808127 L 348.904932 -0.000808127 L 348.904932 96.092952 L -0.00131637 96.092952 L -0.00131637 -0.000808127 " stroke="#000000" stroke-width="6" stroke-opacity="1" stroke-miterlimit="4"/></g><g clip-path="url(#9e0b1164f6)"><path fill="#ff914d" d="M 63.558594 158.238281 L 187.515625 158.238281 L 187.515625 216.84375 L 63.558594 216.84375 Z M 63.558594 158.238281 " fill-opacity="1" fill-rule="nonzero"/></g><g fill="#ffffff" fill-opacity="1"><g transform="translate(72.138009, 196.618259)"><g><path d="M 2.863281 0 L 9.660156 0 C 15.699219 0 19.746094 -4.015625 19.746094 -9.832031 C 19.746094 -15.644531 15.699219 -19.660156 9.660156 -19.660156 L 2.863281 -19.660156 Z M 5.335938 -2.359375 L 5.335938 -17.300781 L 9.550781 -17.300781 C 14.128906 -17.300781 17.21875 -14.296875 17.21875 -9.832031 C 17.21875 -5.363281 14.15625 -2.359375 9.660156 -2.359375 Z M 5.335938 -2.359375 "/></g></g></g><g fill="#ffffff" fill-opacity="1"><g transform="translate(95.640229, 196.618259)"><g><path d="M 11.796875 0.363281 C 17.78125 0.363281 21.992188 -3.847656 21.992188 -9.832031 C 21.992188 -15.8125 17.78125 -20.027344 11.796875 -20.027344 C 5.8125 -20.027344 1.628906 -15.8125 1.628906 -9.832031 C 1.628906 -3.847656 5.8125 0.363281 11.796875 0.363281 Z M 4.15625 -9.832031 C 4.15625 -14.410156 7.273438 -17.554688 11.796875 -17.554688 C 16.320312 -17.554688 19.4375 -14.410156 19.4375 -9.832031 C 19.4375 -5.253906 16.320312 -2.105469 11.796875 -2.105469 C 7.273438 -2.105469 4.15625 -5.253906 4.15625 -9.832031 Z M 4.15625 -9.832031 "/></g></g></g><g fill="#ffffff" fill-opacity="1"><g transform="translate(121.360612, 196.618259)"><g><path d="M 2.863281 0 L 14.886719 0 L 14.886719 -2.359375 L 5.335938 -2.359375 L 5.335938 -19.660156 L 2.863281 -19.660156 Z M 2.863281 0 "/></g></g></g><g fill="#ffffff" fill-opacity="1"><g transform="translate(139.247217, 196.618259)"><g><path d="M 2.863281 0 L 5.335938 0 L 5.335938 -6.460938 L 9.523438 -6.460938 C 13.960938 -6.460938 16.824219 -9.015625 16.824219 -13.0625 C 16.824219 -17.078125 13.960938 -19.660156 9.523438 -19.660156 L 2.863281 -19.660156 Z M 5.335938 -8.761719 L 5.335938 -17.300781 L 9.464844 -17.300781 C 12.640625 -17.300781 14.296875 -15.839844 14.296875 -13.03125 C 14.296875 -10.222656 12.640625 -8.761719 9.464844 -8.761719 Z M 5.335938 -8.761719 "/></g></g></g><g fill="#ffffff" fill-opacity="1"><g transform="translate(159.323912, 196.618259)"><g><path d="M 0.476562 0 L 3.117188 0 L 4.914062 -4.464844 L 14.492188 -4.464844 L 16.347656 0 L 18.960938 0 L 10.871094 -19.660156 L 8.566406 -19.660156 Z M 5.871094 -6.769531 L 9.71875 -16.207031 L 13.566406 -6.769531 Z M 5.871094 -6.769531 "/></g></g></g><g fill="#ff914d" fill-opacity="1"><g transform="translate(204.963452, 196.769512)"><g><path d="M 2.078125 0 L 10.421875 0 C 16.769531 0 20.980469 -3.902344 20.980469 -9.832031 C 20.980469 -15.730469 16.769531 -19.660156 10.421875 -19.660156 L 2.078125 -19.660156 Z M 7.75 -5.082031 L 7.75 -14.578125 L 10.25 -14.578125 C 13.257812 -14.578125 15.195312 -12.722656 15.195312 -9.832031 C 15.195312 -6.9375 13.257812 -5.082031 10.25 -5.082031 Z M 7.75 -5.082031 "/></g></g></g><g fill="#ff914d" fill-opacity="1"><g transform="translate(226.897843, 196.769512)"><g><path d="M 2.078125 0 L 15.867188 0 L 15.867188 -4.632812 L 7.695312 -4.632812 L 7.695312 -7.667969 L 14.800781 -7.667969 L 14.800781 -12.21875 L 7.695312 -12.21875 L 7.695312 -15.082031 L 15.558594 -15.082031 L 15.558594 -19.660156 L 2.078125 -19.660156 Z M 2.078125 0 "/></g></g></g><g fill="#ff914d" fill-opacity="1"><g transform="translate(244.029698, 196.769512)"><g><path d="M 2.078125 0 L 15.785156 0 L 15.785156 -5.253906 L 7.75 -5.253906 L 7.75 -19.660156 L 2.078125 -19.660156 Z M 2.078125 0 "/></g></g></g><g fill="#ff914d" fill-opacity="1"><g transform="translate(260.515601, 196.769512)"><g><path d="M 6.769531 0 L 12.414062 0 L 12.414062 -14.410156 L 18.398438 -14.410156 L 18.398438 -19.660156 L 0.785156 -19.660156 L 0.785156 -14.410156 L 6.769531 -14.410156 Z M 6.769531 0 "/></g></g></g><g fill="#ff914d" fill-opacity="1"><g transform="translate(279.697666, 196.769512)"><g><path d="M 0.140625 0 L 6.152344 0 L 7.21875 -2.78125 L 13.929688 -2.78125 L 15 0 L 21.035156 0 L 13.398438 -19.660156 L 7.78125 -19.660156 Z M 8.398438 -6.9375 L 10.589844 -13.03125 L 12.78125 -6.9375 Z M 8.398438 -6.9375 "/></g></g></g></svg>